<svg width="127" height="56" viewBox="0 0 127 56" fill="none" xmlns="http://www.w3.org/2000/svg">
<path d="M0 1.98206C0 0.872241 0.802947 0 1.95 0C3.09705 0 3.92022 0.872245 3.92022 1.99224C3.92022 3.11224 3.11729 3.98448 1.97024 3.98448C0.823188 3.98448 0 3.10206 0 1.98206ZM3.71443 1.98206C3.71443 0.977453 2.99921 0.19006 1.95 0.19006C0.900783 0.19006 0.20579 0.977453 0.20579 1.98206C0.20579 2.98666 0.921026 3.79443 1.95 3.79443C2.97897 3.79443 3.71443 3.00703 3.71443 1.98206ZM1.30899 0.902789H2.03434C2.4493 0.902789 2.67533 1.13018 2.67533 1.46279C2.67533 1.79539 2.4493 2.02279 2.09169 2.02279L2.90136 3.01721H2.63822L1.82853 2.02279H1.53502V3.01721H1.30899V0.902789ZM1.53502 1.12V1.792H2.04445C2.31772 1.792 2.43917 1.64945 2.43917 1.45939C2.43917 1.26933 2.32447 1.11661 2.04445 1.11661H1.53502V1.12Z" fill="#0B4BB9"/>
<path d="M58.6552 49.5312C56.5181 49.5312 54.8515 48.9039 53.6566 47.6491C52.4606 46.3944 51.8625 44.65 51.8625 42.4148V33.0936H55.7147V42.5615C55.7147 43.6198 55.9697 44.4435 56.4797 45.0314C56.9897 45.6193 57.7152 45.9138 58.6552 45.9138H60.1547V33.0936H64.0069V45.9138H65.5358C66.4565 45.9138 67.1719 45.6193 67.6819 45.0314C68.1919 44.4435 68.4469 43.6198 68.4469 42.5615V33.0936H72.299V42.4148C72.299 44.65 71.701 46.3944 70.505 47.6491C69.3089 48.9039 67.6525 49.5312 65.5358 49.5312H58.6552Z" fill="#0B4BB9"/>
<path d="M75.3309 31.418C74.7035 31.418 74.189 31.2126 73.7873 30.8008C73.3856 30.3889 73.1848 29.8891 73.1848 29.3012C73.1848 28.7133 73.3856 28.2135 73.7873 27.8016C74.189 27.3898 74.7035 27.1844 75.3309 27.1844C75.9583 27.1844 76.4378 27.3898 76.8305 27.8016C77.222 28.2135 77.4183 28.7133 77.4183 29.3012C77.4183 29.8891 77.222 30.3889 76.8305 30.8008C76.4378 31.2126 75.9379 31.418 75.3309 31.418ZM73.3902 33.0936H77.2423V49.5312H73.3902V33.0936Z" fill="#0B4BB9"/>
<path d="M85.7421 33.0936C87.8781 33.0936 89.5446 33.7209 90.7406 34.9756C91.9356 36.2304 92.5347 37.9748 92.5347 40.21V49.5312H88.6826V40.0633C88.6826 39.0049 88.4276 38.1813 87.9175 37.5934C87.4075 37.0055 86.6922 36.711 85.7714 36.711H82.1551V49.5312H78.303V33.0936H85.7421Z" fill="#0B4BB9"/>
<path d="M93.3866 48.9727C93.3866 47.973 93.5671 47.0466 93.9304 46.1936C94.2926 45.3406 94.788 44.5812 95.4153 43.9143C95.0813 43.366 94.8218 42.7634 94.6356 42.1056C94.4495 41.4489 94.3558 40.7482 94.3558 40.0035C94.3558 38.9846 94.5273 38.0481 94.8703 37.1951C95.2134 36.3421 95.6985 35.612 96.3259 35.005C96.9532 34.3979 97.698 33.9274 98.5611 33.5934C99.4232 33.2606 100.385 33.0936 101.443 33.0936H108.558V39.8275C108.558 40.9062 108.387 41.8811 108.044 42.7533C107.701 43.6255 107.215 44.3702 106.588 44.9885C105.961 45.6057 105.21 46.0864 104.338 46.4294C103.466 46.7724 102.5 46.9439 101.442 46.9439C100.148 46.9439 99.0113 46.6991 98.0308 46.2083C97.443 46.953 97.1485 47.7958 97.1485 48.7369C97.1485 49.2661 97.241 49.7558 97.4283 50.2071C97.6145 50.6573 97.8785 51.0455 98.2226 51.3682C98.5656 51.692 98.9775 51.9414 99.4582 52.1174C99.9377 52.2934 100.473 52.3825 101.06 52.3825C102.06 52.3825 102.898 52.1275 103.574 51.6175C104.25 51.1075 104.628 50.4125 104.706 49.5301H108.558C108.5 50.549 108.269 51.4607 107.868 52.2652C107.466 53.0686 106.931 53.7456 106.265 54.2939C105.599 54.8423 104.829 55.2643 103.957 55.5588C103.085 55.8533 102.129 56 101.09 56C99.9332 56 98.8793 55.8183 97.9293 55.4561C96.9781 55.0928 96.1645 54.5986 95.4887 53.9712C94.8128 53.3439 94.2926 52.6037 93.9304 51.7507C93.5671 50.8976 93.3866 49.9713 93.3866 48.9716V48.9727ZM101.443 43.3265C102.403 43.3265 103.187 43.0083 103.795 42.3708C104.403 41.7344 104.707 40.8859 104.707 39.8275V36.711H101.443C100.502 36.711 99.7278 37.0202 99.1197 37.6374C98.5115 38.2546 98.208 39.0444 98.208 40.0046C98.208 40.9649 98.507 41.784 99.105 42.4012C99.703 43.0184 100.482 43.3276 101.443 43.3276V43.3265Z" fill="#0B4BB9"/>
<path d="M108.523 45.9149H118.762C119.272 45.9149 119.634 45.7727 119.85 45.4884C120.065 45.204 120.173 44.8757 120.173 44.5033C120.173 44.131 120.065 43.8026 119.85 43.5183C119.634 43.2339 119.271 43.0918 118.762 43.0918H115.821C114.116 43.0918 112.812 42.6416 111.911 41.7389C111.009 40.8373 110.558 39.6221 110.558 38.0932C110.558 36.5643 111.008 35.3491 111.911 34.4476C112.812 33.546 114.116 33.0947 115.821 33.0947H126.998V36.711H115.821C115.311 36.711 114.949 36.8487 114.734 37.1229C114.518 37.397 114.41 37.7209 114.41 38.0932C114.41 38.4656 114.517 38.7894 114.734 39.0636C114.949 39.3378 115.311 39.4754 115.821 39.4754H118.762C120.487 39.4754 121.795 39.9313 122.687 40.843C123.579 41.7547 124.026 42.9744 124.026 44.5033C124.026 46.0322 123.58 47.2531 122.687 48.1637C121.795 49.0754 120.487 49.5312 118.762 49.5312H108.523V45.9149Z" fill="#0B4BB9"/>
<path d="M0 24.7745C0 11.0919 11.0919 0 24.7745 0V24.7745H0Z" fill="#0B4BB9"/>
<path d="M24.7745 -1.52588e-05H49.549V24.7745C35.8664 24.7745 24.7745 13.6826 24.7745 -1.52588e-05Z" fill="#0B4BB9"/>
<path d="M24.7745 24.7745H49.549V49.549C35.8664 49.549 24.7745 38.4571 24.7745 24.7745Z" fill="#0B4BB9"/>
<path d="M0 24.7745H24.7745C24.7745 38.4571 13.6826 49.549 0 49.549V24.7745Z" fill="#0B4BB9"/>
</svg>
